<svg xmlns="http://www.w3.org/2000/svg" width="65.467" height="65.499" viewBox="0 0 65.467 65.499"><defs><style>.a{fill:#0079b8;}</style></defs><path class="a" d="M65.043,29.837a2.474,2.474,0,0,0-2.456,2.456H57.543A22.852,22.852,0,0,0,52.565,20.34l3.57-3.57.033.033a2.455,2.455,0,0,0,3.471-3.471L56.168,9.86a2.455,2.455,0,0,0-3.5,3.439l-3.57,3.57a22.974,22.974,0,0,0-11.921-4.945V6.912h.033a2.456,2.456,0,1,0,0-4.912H32.293a2.456,2.456,0,0,0-.033,4.912v5.076A22.707,22.707,0,0,0,20.34,16.934l-3.57-3.57.033-.033A2.455,2.455,0,1,0,13.331,9.86L9.86,13.331a2.455,2.455,0,0,0,3.439,3.5l3.57,3.57a22.562,22.562,0,0,0-4.912,11.888H6.912a2.456,2.456,0,0,0-4.912,0v4.912a2.456,2.456,0,0,0,4.912,0h5.043a23.1,23.1,0,0,0,4.912,11.888l-3.57,3.57A2.431,2.431,0,0,0,9.86,52.7a2.471,2.471,0,0,0,0,3.471l3.471,3.471A2.455,2.455,0,0,0,16.8,56.168l-.033-.033,3.57-3.57A22.866,22.866,0,0,0,32.228,57.51v5.076A2.456,2.456,0,0,0,32.26,67.5h4.912a2.456,2.456,0,0,0,0-4.912H37.14V57.543A22.707,22.707,0,0,0,49.061,52.6l3.57,3.57a2.431,2.431,0,0,0,.033,3.439,2.471,2.471,0,0,0,3.471,0l3.471-3.471a2.455,2.455,0,0,0-3.471-3.471L56.1,52.7l-3.57-3.57A23.007,23.007,0,0,0,57.51,37.173h5.043a2.456,2.456,0,0,0,4.912,0V32.26A2.418,2.418,0,0,0,65.043,29.837ZM40.481,21.65a3.275,3.275,0,1,1-3.275,3.275A3.285,3.285,0,0,1,40.481,21.65ZM34.749,38.024a3.275,3.275,0,1,1,3.275-3.275A3.285,3.285,0,0,1,34.749,38.024ZM29.018,21.65a3.275,3.275,0,1,1-3.275,3.275A3.285,3.285,0,0,1,29.018,21.65ZM23.287,38.024a3.275,3.275,0,1,1,3.275-3.275A3.285,3.285,0,0,1,23.287,38.024Zm5.731,9.825a3.275,3.275,0,1,1,3.275-3.275A3.285,3.285,0,0,1,29.018,47.849Zm11.462,0a3.275,3.275,0,1,1,3.275-3.275A3.285,3.285,0,0,1,40.481,47.849Zm2.456-13.1a3.275,3.275,0,1,1,3.275,3.275A3.285,3.285,0,0,1,42.937,34.749Z" transform="translate(-2 -2)"/></svg>