<svg xmlns="http://www.w3.org/2000/svg" width="52.387" height="67.152" viewBox="0 0 52.387 67.152"><defs><style>.a{fill:#0079b8;}</style></defs><path class="a" d="M54.7,37.042C49.554,23.681,31.248,22.96,35.669,3.54a1.652,1.652,0,0,0-2.456-1.8C21.324,8.747,12.777,22.8,19.949,41.2a1.63,1.63,0,0,1-2.456,1.932c-5.928-4.487-6.55-10.938-6.026-15.556a1.639,1.639,0,0,0-2.98-1.113C6.26,29.87,4,35.372,4,43.658,5.244,62,20.735,67.63,26.3,68.351c7.958,1.015,16.571-.458,22.761-6.124A22.643,22.643,0,0,0,54.7,37.042ZM24.3,53.515A10.118,10.118,0,0,0,32.1,45.95c1.081-4.683-3.144-9.268-.295-16.669,1.081,6.124,10.709,9.956,10.709,16.637C42.775,54.2,33.8,61.31,24.3,53.515Z" transform="translate(-4 -1.496)"/></svg>