<svg xmlns="http://www.w3.org/2000/svg" width="65.499" height="65.499" viewBox="0 0 65.499 65.499"><defs><style>.a{fill:#0079b8;}</style></defs><path class="a" d="M67.5,31.474H53.842L64.453,20.864l-4.618-4.65L44.574,31.474h-6.55v-6.55L53.286,9.663l-4.65-4.618L38.024,15.657V2h-6.55V15.657L20.864,5.046l-4.65,4.618L31.474,24.925v6.55h-6.55L9.663,16.213l-4.618,4.65L15.657,31.474H2v6.55H15.657L5.046,48.635l4.618,4.65L24.925,38.024h6.55v6.55L16.213,59.835l4.65,4.618L31.474,53.842V67.5h6.55V53.842L48.635,64.453l4.65-4.618L38.024,44.574v-6.55h6.55L59.835,53.286l4.618-4.65L53.842,38.024H67.5Z" transform="translate(-2 -2)"/></svg>