<svg xmlns="http://www.w3.org/2000/svg" xmlns:xlink="http://www.w3.org/1999/xlink" width="1920" height="143" viewBox="0 0 1920 143"><defs><clipPath id="a"><rect width="1920" height="143"/></clipPath><clipPath id="b"><path d="M0,0H1920V-294.027H0Z" fill="none"/></clipPath></defs><g clip-path="url(#a)"><g transform="translate(0 138.054)"><g clip-path="url(#b)"><g transform="translate(850.11 -15.394)"><path d="M0,0C652.418,38.761,1185.37,1.8,1190.38-82.548S670.565-266.7,18.148-305.461s-1185.37-1.8-1190.38,82.548S-652.418-38.761,0,0" fill="#ea3833"/></g><g transform="translate(918.557 -35.36)"><path d="M0,0C653.313,18.249,1184.84-35.432,1187.2-119.9S661.857-287.632,8.544-305.881s-1184.84,35.432-1187.2,119.9S-653.313-18.249,0,0" fill="#0079b8"/></g><g transform="translate(960 -60.361)"><path d="M0,0C653.568,0,1183.39-68.5,1183.39-153S653.568-306,0-306s-1183.39,68.5-1183.39,153S-653.568,0,0,0" fill="#fff"/></g></g></g></g></svg>