<svg xmlns="http://www.w3.org/2000/svg" width="65.467" height="65.499"><path d="M63.043 27.837a2.474 2.474 0 00-2.456 2.456h-5.044a22.852 22.852 0 00-4.978-11.953l3.57-3.57.033.033a2.455 2.455 0 003.471-3.471L54.168 7.86a2.455 2.455 0 00-3.5 3.439l-3.57 3.57a22.974 22.974 0 00-11.921-4.945V4.912h.033a2.456 2.456 0 100-4.912h-4.917a2.456 2.456 0 00-.033 4.912v5.076a22.707 22.707 0 00-11.92 4.946l-3.57-3.57.033-.033a2.455 2.455 0 10-3.472-3.471L7.86 11.331a2.455 2.455 0 003.439 3.5l3.57 3.57a22.562 22.562 0 00-4.912 11.888H4.912a2.456 2.456 0 00-4.912 0v4.912a2.456 2.456 0 004.912 0h5.043a23.1 23.1 0 004.912 11.888l-3.57 3.57a2.431 2.431 0 00-3.437.041 2.471 2.471 0 000 3.471l3.471 3.471a2.455 2.455 0 003.469-3.474l-.033-.033 3.57-3.57a22.866 22.866 0 0011.891 4.945v5.076a2.457 2.457 0 00.032 4.914h4.912a2.456 2.456 0 000-4.912h-.032v-5.045A22.707 22.707 0 0047.061 50.6l3.57 3.57a2.431 2.431 0 00.033 3.439 2.471 2.471 0 003.471 0l3.471-3.471a2.455 2.455 0 00-3.471-3.471l-.035.033-3.57-3.57a23.007 23.007 0 004.98-11.957h5.043a2.456 2.456 0 004.912 0V30.26a2.418 2.418 0 00-2.422-2.423zM38.481 19.65a3.275 3.275 0 11-3.275 3.275 3.285 3.285 0 013.275-3.275zm-5.732 16.374a3.275 3.275 0 113.275-3.275 3.285 3.285 0 01-3.275 3.275zM27.018 19.65a3.275 3.275 0 11-3.275 3.275 3.285 3.285 0 013.275-3.275zm-5.731 16.374a3.275 3.275 0 113.275-3.275 3.285 3.285 0 01-3.275 3.275zm5.731 9.825a3.275 3.275 0 113.275-3.275 3.285 3.285 0 01-3.275 3.275zm11.462 0a3.275 3.275 0 113.275-3.275 3.285 3.285 0 01-3.274 3.275zm2.456-13.1a3.275 3.275 0 113.275 3.275 3.285 3.285 0 01-3.274-3.275z" fill="#0079b8"/></svg>