<svg xmlns="http://www.w3.org/2000/svg" width="52.387" height="67.152"><path d="M50.7 35.546C45.554 22.185 27.248 21.464 31.669 2.044a1.652 1.652 0 00-2.456-1.8c-11.889 7.007-20.436 21.06-13.264 39.46a1.63 1.63 0 01-2.456 1.932c-5.928-4.487-6.55-10.938-6.026-15.556a1.639 1.639 0 00-2.98-1.113C2.26 28.374 0 33.876 0 42.162c1.244 18.342 16.735 23.972 22.3 24.693 7.958 1.015 16.571-.458 22.761-6.124A22.643 22.643 0 0050.7 35.546zM20.3 52.019a10.118 10.118 0 007.8-7.565c1.081-4.683-3.144-9.268-.295-16.669 1.081 6.124 10.709 9.956 10.709 16.637.261 8.282-8.714 15.392-18.214 7.597z" fill="#0079b8"/></svg>