<svg xmlns="http://www.w3.org/2000/svg" width="65.499" height="65.499"><path d="M65.5 29.474H51.842l10.611-10.61-4.618-4.65-15.261 15.26h-6.55v-6.55L51.286 7.663l-4.65-4.618-10.612 10.612V0h-6.55v13.657L18.864 3.046l-4.65 4.618 15.26 15.261v6.55h-6.55L7.663 14.213l-4.618 4.65 10.612 10.611H0v6.55h13.657L3.046 46.635l4.618 4.65 15.261-15.261h6.55v6.55L14.213 57.835l4.65 4.618 10.611-10.611V65.5h6.55V51.842l10.611 10.611 4.65-4.618-15.261-15.261v-6.55h6.55l15.261 15.262 4.618-4.65-10.611-10.612H65.5z" fill="#0079b8"/></svg>