<svg xmlns="http://www.w3.org/2000/svg" width="1920" height="143"><defs><clipPath id="b"><path d="M0 0h1920v-294.027H0z" fill="none"/></clipPath><clipPath id="a"><path d="M0 0h1920v143H0z"/></clipPath></defs><g clip-path="url(#a)"><g clip-path="url(#b)" transform="translate(0 138.054)"><path d="M850.11-15.394c652.418 38.761 1185.369 1.8 1190.381-82.548S1520.675-282.094 868.258-320.855s-1185.37-1.8-1190.381 82.548S197.692-54.155 850.11-15.394" fill="#a7c5e1"/><path d="M918.557-35.36c653.313 18.249 1184.841-35.432 1187.2-119.9S1580.414-322.992 927.101-341.241s-1184.841 35.432-1187.2 119.9S265.244-53.609 918.557-35.36" fill="#0079b8"/><path d="M960-60.361c653.568 0 1183.39-68.5 1183.39-153s-529.822-153-1183.39-153-1183.39 68.5-1183.39 153 529.822 153 1183.39 153" fill="#fff"/></g></g></svg>